<svg height="30" viewBox="0 0 1000 120" width="250" xmlns="http://www.w3.org/2000/svg"><path d="m0 0h1000v120h-1000z"/><g fill="none" stroke="#222" stroke-width="10"><path d="m-500 75s125-30 250-30 250 30 250 30 125 30 250 30 250-30 250-30 125-30 250-30 250 30 250 30 125 30 250 30 250-30 250-30"/><path d="m-500 45s125-30 250-30 250 30 250 30 125 30 250 30 250-30 250-30 125-30 250-30 250 30 250 30 125 30 250 30 250-30 250-30"/><path d="m-500 105s125-30 250-30 250 30 250 30 125 30 250 30 250-30 250-30 125-30 250-30 250 30 250 30 125 30 250 30 250-30 250-30"/><path d="m-500 15s125-30 250-30 250 30 250 30 125 30 250 30 250-30 250-30 125-30 250-30 250 30 250 30 125 30 250 30 250-30 250-30"/><path d="m-500-15s125-30 250-30 250 30 250 30 125 30 250 30 250-30 250-30 125-30 250-30 250 30 250 30 125 30 250 30 250-30 250-30"/><path d="m-500 135s125-30 250-30 250 30 250 30 125 30 250 30 250-30 250-30 125-30 250-30 250 30 250 30 125 30 250 30 250-30 250-30"/></g></svg>